<svg version="1.1" id="Layer_1" xmlns="http://www.w3.org/2000/svg" xmlns:xlink="http://www.w3.org/1999/xlink" x="0px" y="0px"
	 width="100%" viewBox="0 0 131 131" enable-background="new 0 0 131 131" xml:space="preserve">
<!-- <path fill="#FEFDFD" opacity="1.000000" stroke="none" 
	d="
M77.000000,132.000000 
	C51.333332,132.000000 26.166666,132.000000 1.000000,132.000000 
	C1.000000,88.333336 1.000000,44.666668 1.000000,1.000000 
	C44.666668,1.000000 88.333336,1.000000 132.000000,1.000000 
	C132.000000,44.666668 132.000000,88.333336 132.000000,132.000000 
	C113.833336,132.000000 95.666664,132.000000 77.000000,132.000000 
M55.953957,123.478607 
	C56.726631,124.128098 57.485451,125.320747 58.274178,125.340858 
	C64.396858,125.497047 70.525314,125.427078 76.936813,125.427078 
	C83.747314,87.156738 90.493469,49.247971 97.279335,11.116063 
	C93.655617,11.116063 90.588264,11.116063 87.360008,11.116063 
	C82.311615,43.208401 77.307411,75.019875 72.312904,106.769714 
	C68.489929,106.769714 65.227142,106.769714 61.667740,106.769714 
	C56.470131,74.745384 51.307503,42.936569 46.157200,11.203718 
	C42.529289,11.203718 39.334843,11.203718 35.920448,11.203718 
	C42.610744,48.636887 49.224144,85.639801 55.953957,123.478607 
M76.704361,10.991738 
	C69.923996,10.991738 63.143627,10.991738 56.176655,10.991738 
	C59.530991,34.187771 62.819641,56.929562 66.108292,79.671349 
	C66.641518,79.706261 67.174744,79.741173 67.707962,79.776093 
	C70.934029,57.021339 74.160095,34.266594 76.704361,10.991738 
z"/> -->
<path fill="#B31F1E" opacity="1.000000" stroke="none" 
	d="
M55.895752,123.060661 
	C49.224144,85.639801 42.610744,48.636887 35.920448,11.203718 
	C39.334843,11.203718 42.529289,11.203718 46.157200,11.203718 
	C51.307503,42.936569 56.470131,74.745384 61.667740,106.769714 
	C65.227142,106.769714 68.489929,106.769714 72.312904,106.769714 
	C77.307411,75.019875 82.311615,43.208401 87.360008,11.116063 
	C90.588264,11.116063 93.655617,11.116063 97.279335,11.116063 
	C90.493469,49.247971 83.747314,87.156738 76.936813,125.427078 
	C70.525314,125.427078 64.396858,125.497047 58.274178,125.340858 
	C57.485451,125.320747 56.726631,124.128098 55.895752,123.060661 
z"/>

<path fill="#262424" opacity="1.000000" stroke="none" 
	d="
M77.045258,11.251792 
	C74.160095,34.266594 70.934029,57.021339 67.707962,79.776093 
	C67.174744,79.741173 66.641518,79.706261 66.108292,79.671349 
	C62.819641,56.929562 59.530991,34.187771 56.176655,10.991738 
	C63.143627,10.991738 69.923996,10.991738 77.045258,11.251792 
z"/>
</svg>